<svg xmlns="http://www.w3.org/2000/svg" xmlns:xlink="http://www.w3.org/1999/xlink" preserveAspectRatio="xMidYMid" width="499.992" height="499.992" viewBox="0 0 120 120">
  <defs>
    <style>
      .cls-1 {
        fill: #ff3d34;
      }

      .cls-2 {
        fill: #fff;
        fill-rule: evenodd;
      }
    </style>
  </defs>
  <g>
    <circle cx="60" cy="60" r="60" class="cls-1"/>
    <path d="M60.776,48.769 C60.303,47.834 59.682,47.075 58.909,46.489 C58.122,45.935 57.216,45.641 56.192,45.610 C54.838,45.641 53.712,46.172 52.814,47.201 C52.057,48.278 51.696,49.482 51.727,50.812 C51.727,52.569 52.256,54.399 53.314,56.298 C53.827,57.186 54.488,57.938 55.297,58.555 C56.107,59.173 57.033,59.481 58.074,59.481 C59.390,59.434 60.486,58.974 61.363,58.103 C61.786,57.486 62.058,56.853 62.179,56.203 C62.251,55.554 62.288,55.008 62.288,54.565 C62.288,52.648 61.784,50.717 60.776,48.769 ZM56.617,67.349 C55.582,67.491 54.524,67.719 53.443,68.036 C53.187,68.131 52.829,68.273 52.368,68.463 C51.907,68.668 51.437,68.961 50.960,69.340 C50.498,69.735 50.108,70.225 49.790,70.810 C49.424,71.427 49.241,72.169 49.241,73.039 C49.241,74.745 50.037,76.152 51.628,77.259 C53.139,78.365 55.208,78.934 57.834,78.966 C60.189,78.934 61.987,78.428 63.229,77.448 C64.438,76.484 65.042,75.243 65.042,73.726 C65.042,72.493 64.629,71.419 63.801,70.502 C62.926,69.633 61.558,68.566 59.696,67.301 C59.377,67.270 59.004,67.254 58.574,67.254 C58.319,67.222 57.667,67.254 56.617,67.349 ZM63.111,45.752 C63.426,45.941 63.778,46.219 64.171,46.582 C64.547,46.961 64.916,47.427 65.278,47.980 C65.622,48.502 65.929,49.118 66.196,49.829 C66.415,50.540 66.525,51.370 66.525,52.318 C66.495,54.057 66.100,55.447 65.341,56.490 C64.969,56.996 64.574,57.462 64.157,57.889 C63.696,58.315 63.204,58.750 62.683,59.192 C62.385,59.493 62.110,59.832 61.857,60.211 C61.559,60.606 61.410,61.065 61.410,61.587 C61.410,62.092 61.563,62.511 61.868,62.842 C62.128,63.159 62.380,63.435 62.625,63.672 L64.320,65.023 C65.373,65.862 66.297,66.785 67.092,67.797 C67.840,68.824 68.229,70.167 68.260,71.826 C68.260,74.181 67.191,76.267 65.053,78.085 C62.835,79.965 59.635,80.937 55.454,81.000 C51.954,80.968 49.339,80.243 47.614,78.823 C45.872,77.498 45.000,75.913 45.000,74.068 C45.000,73.168 45.283,72.167 45.850,71.063 C46.399,69.958 47.396,68.988 48.836,68.153 C50.455,67.253 52.156,66.655 53.937,66.355 C55.701,66.102 57.167,65.960 58.332,65.929 C57.972,65.468 57.651,64.975 57.369,64.451 C57.040,63.943 56.876,63.331 56.876,62.616 C56.876,62.187 56.938,61.829 57.064,61.543 C57.173,61.241 57.275,60.963 57.369,60.709 C56.801,60.773 56.266,60.804 55.763,60.804 C53.103,60.773 51.075,59.959 49.681,58.363 C48.221,56.878 47.490,55.148 47.490,53.172 C47.490,50.787 48.525,48.622 50.594,46.678 C52.014,45.541 53.490,44.798 55.022,44.451 C56.538,44.151 57.959,44.000 59.285,44.000 L69.280,44.000 L66.193,45.752 L63.111,45.752 ZM85.000,62.016 L84.872,62.016 L84.872,62.018 L79.766,62.018 L79.766,66.999 L79.555,66.999 L79.555,67.165 L76.565,67.165 L76.565,62.018 L71.249,62.018 L71.249,59.122 L71.666,59.122 L71.666,59.100 L76.565,59.100 L76.565,53.974 L79.555,53.974 L79.555,53.996 L79.766,53.996 L79.766,59.100 L85.000,59.100 L85.000,62.016 Z" class="cls-2"/>
  </g>
</svg>
