<svg xmlns="http://www.w3.org/2000/svg" xmlns:xlink="http://www.w3.org/1999/xlink" preserveAspectRatio="xMidYMid" width="499.992" height="499.992" viewBox="0 0 120 120">
  <defs>
    <style>
      .cls-1 {
        fill: #54abed;
      }

      .cls-2 {
        fill: #fff;
        fill-rule: evenodd;
      }
    </style>
  </defs>
  <g>
    <circle cx="60" cy="60" r="60" class="cls-1"/>
    <path d="M69.693,45.000 C65.161,45.000 61.487,48.616 61.487,53.078 C61.487,53.711 61.560,54.327 61.699,54.919 C54.879,54.582 48.832,51.366 44.785,46.478 C44.078,47.671 43.673,49.060 43.673,50.540 C43.673,53.342 45.122,55.815 47.324,57.264 C45.979,57.222 44.714,56.859 43.607,56.254 L43.607,56.355 C43.607,60.269 46.435,63.535 50.189,64.277 C49.501,64.461 48.776,64.560 48.028,64.560 C47.498,64.560 46.985,64.509 46.484,64.415 C47.528,67.624 50.558,69.960 54.149,70.026 C51.341,72.192 47.803,73.483 43.958,73.483 C43.295,73.483 42.642,73.445 42.000,73.370 C45.632,75.662 49.945,77.000 54.580,77.000 C69.674,77.000 77.929,64.690 77.929,54.015 C77.929,53.664 77.921,53.316 77.905,52.970 C79.508,51.831 80.899,50.408 82.000,48.788 C80.528,49.430 78.947,49.865 77.286,50.060 C78.981,49.060 80.282,47.477 80.895,45.590 C79.310,46.516 77.553,47.189 75.683,47.551 C74.187,45.981 72.053,45.000 69.693,45.000 " class="cls-2"/>
  </g>
</svg>
